<mxfile host="app.diagrams.net" modified="2022-09-11T18:52:11.352Z" agent="5.0 (Windows NT 10.0; Win64; x64) AppleWebKit/537.36 (KHTML, like Gecko) Chrome/105.0.0.0 Safari/537.36" etag="0s56gOz64gD4jI6Maeg9" version="20.3.0" type="github">
  <diagram id="E55SIUXPI5zPZzohXUC2" name="Página-1">
    <mxGraphModel dx="1237" dy="690" grid="1" gridSize="10" guides="1" tooltips="1" connect="1" arrows="1" fold="1" page="1" pageScale="1" pageWidth="1169" pageHeight="827" math="0" shadow="0">
      <root>
        <mxCell id="0" />
        <mxCell id="1" parent="0" />
        <mxCell id="vMFZrTkS__saMolLycXG-198" value="&lt;font style=&quot;font-size: 9px;&quot;&gt;Tem 2 reforços marcados, que é o permitido dentro de cada janela (1ª e 2ª)?&lt;/font&gt;" style="rhombus;whiteSpace=wrap;html=1;fillColor=#ffe6cc;strokeColor=#d79b00;rounded=0;" vertex="1" parent="1">
          <mxGeometry x="940" y="428.13" width="119.19" height="91.87" as="geometry" />
        </mxCell>
        <mxCell id="vMFZrTkS__saMolLycXG-1" value="SRV 1" style="rounded=0;whiteSpace=wrap;html=1;fillColor=#f5f5f5;fontColor=#333333;strokeColor=#666666;" vertex="1" parent="1">
          <mxGeometry x="40" y="240" width="120" height="60" as="geometry" />
        </mxCell>
        <mxCell id="vMFZrTkS__saMolLycXG-237" value="" style="edgeStyle=segmentEdgeStyle;endArrow=classic;html=1;rounded=0;strokeColor=#808080;entryX=0.931;entryY=-0.007;entryDx=0;entryDy=0;entryPerimeter=0;exitX=0;exitY=0.5;exitDx=0;exitDy=0;" edge="1" parent="1" source="vMFZrTkS__saMolLycXG-198" target="vMFZrTkS__saMolLycXG-60">
          <mxGeometry width="50" height="50" relative="1" as="geometry">
            <mxPoint x="920" y="474" as="sourcePoint" />
            <mxPoint x="209.99999999999997" y="637.92" as="targetPoint" />
            <Array as="points">
              <mxPoint x="940" y="650" />
            </Array>
          </mxGeometry>
        </mxCell>
        <mxCell id="vMFZrTkS__saMolLycXG-241" value="SIM" style="edgeLabel;html=1;align=center;verticalAlign=middle;resizable=0;points=[];fontSize=9;fontFamily=Helvetica;fontColor=#330000;rounded=0;" vertex="1" connectable="0" parent="vMFZrTkS__saMolLycXG-237">
          <mxGeometry x="-0.9543" relative="1" as="geometry">
            <mxPoint x="5" y="-2" as="offset" />
          </mxGeometry>
        </mxCell>
        <mxCell id="vMFZrTkS__saMolLycXG-2" value="SRV 2" style="rounded=0;whiteSpace=wrap;html=1;fillColor=#E0E0E0;fontColor=#333333;strokeColor=#191919;" vertex="1" parent="1">
          <mxGeometry x="40" y="360" width="120" height="60" as="geometry" />
        </mxCell>
        <mxCell id="vMFZrTkS__saMolLycXG-3" value="SRV 3" style="rounded=0;whiteSpace=wrap;html=1;fillColor=#919191;fontColor=#333333;strokeColor=#666666;" vertex="1" parent="1">
          <mxGeometry x="40" y="480" width="120" height="60" as="geometry" />
        </mxCell>
        <mxCell id="vMFZrTkS__saMolLycXG-6" value="" style="endArrow=classic;html=1;rounded=0;exitX=1;exitY=0.5;exitDx=0;exitDy=0;entryX=0.073;entryY=0.989;entryDx=0;entryDy=0;entryPerimeter=0;" edge="1" parent="1" source="vMFZrTkS__saMolLycXG-1" target="vMFZrTkS__saMolLycXG-58">
          <mxGeometry width="50" height="50" relative="1" as="geometry">
            <mxPoint x="320" y="290" as="sourcePoint" />
            <mxPoint x="340" y="270" as="targetPoint" />
          </mxGeometry>
        </mxCell>
        <mxCell id="vMFZrTkS__saMolLycXG-8" value="" style="endArrow=classic;html=1;rounded=0;entryX=0.493;entryY=1.021;entryDx=0;entryDy=0;entryPerimeter=0;" edge="1" parent="1" source="vMFZrTkS__saMolLycXG-2" target="vMFZrTkS__saMolLycXG-58">
          <mxGeometry width="50" height="50" relative="1" as="geometry">
            <mxPoint x="170" y="280" as="sourcePoint" />
            <mxPoint x="340" y="390" as="targetPoint" />
          </mxGeometry>
        </mxCell>
        <mxCell id="vMFZrTkS__saMolLycXG-9" value="" style="endArrow=classic;html=1;rounded=0;exitX=1;exitY=0.5;exitDx=0;exitDy=0;entryX=0.914;entryY=1.007;entryDx=0;entryDy=0;entryPerimeter=0;" edge="1" parent="1" source="vMFZrTkS__saMolLycXG-3" target="vMFZrTkS__saMolLycXG-58">
          <mxGeometry width="50" height="50" relative="1" as="geometry">
            <mxPoint x="170" y="399.9999999999998" as="sourcePoint" />
            <mxPoint x="340" y="510" as="targetPoint" />
          </mxGeometry>
        </mxCell>
        <mxCell id="vMFZrTkS__saMolLycXG-16" value="&lt;font size=&quot;1&quot;&gt;Tentando marcar para ano diferente?&lt;/font&gt;" style="rhombus;whiteSpace=wrap;html=1;fillColor=#fff2cc;strokeColor=#d6b656;rounded=0;" vertex="1" parent="1">
          <mxGeometry x="394" y="315" width="70" height="70" as="geometry" />
        </mxCell>
        <mxCell id="vMFZrTkS__saMolLycXG-18" value="" style="endArrow=none;dashed=1;html=1;dashPattern=1 3;strokeWidth=2;rounded=0;fontSize=9;" edge="1" parent="1">
          <mxGeometry width="50" height="50" relative="1" as="geometry">
            <mxPoint x="340" y="764" as="sourcePoint" />
            <mxPoint x="340" y="50" as="targetPoint" />
          </mxGeometry>
        </mxCell>
        <mxCell id="vMFZrTkS__saMolLycXG-19" value="&lt;font style=&quot;font-size: 13px;&quot;&gt;Validações gerais&lt;/font&gt;" style="text;html=1;strokeColor=none;fillColor=none;align=center;verticalAlign=middle;whiteSpace=wrap;rounded=0;fontSize=9;rotation=0;labelBackgroundColor=none;fontStyle=3;" vertex="1" parent="1">
          <mxGeometry x="359" y="30" width="140" height="30" as="geometry" />
        </mxCell>
        <mxCell id="vMFZrTkS__saMolLycXG-22" value="&lt;span style=&quot;font-size: x-small;&quot;&gt;Tentando marcar para mês diferente do mês seguinte ao corrente?&lt;/span&gt;" style="rhombus;whiteSpace=wrap;html=1;fillColor=#fff2cc;strokeColor=#d6b656;rounded=0;" vertex="1" parent="1">
          <mxGeometry x="394" y="205" width="70" height="70" as="geometry" />
        </mxCell>
        <mxCell id="vMFZrTkS__saMolLycXG-23" value="" style="endArrow=none;dashed=1;html=1;dashPattern=1 3;strokeWidth=2;rounded=0;fontSize=9;" edge="1" parent="1">
          <mxGeometry width="50" height="50" relative="1" as="geometry">
            <mxPoint x="520" y="760" as="sourcePoint" />
            <mxPoint x="520" y="40" as="targetPoint" />
          </mxGeometry>
        </mxCell>
        <mxCell id="vMFZrTkS__saMolLycXG-27" value="&lt;font size=&quot;1&quot;&gt;Existe regra criada para o mês da marcação?&lt;/font&gt;" style="rhombus;whiteSpace=wrap;html=1;fillColor=#fff2cc;strokeColor=#d6b656;rounded=0;" vertex="1" parent="1">
          <mxGeometry x="394" y="425" width="70" height="70" as="geometry" />
        </mxCell>
        <mxCell id="vMFZrTkS__saMolLycXG-35" value="NÃO" style="endArrow=classic;html=1;rounded=0;fontFamily=Helvetica;fontSize=12;fontColor=default;dashed=1;exitX=0;exitY=0.5;exitDx=0;exitDy=0;" edge="1" parent="1" source="vMFZrTkS__saMolLycXG-22">
          <mxGeometry width="50" height="50" relative="1" as="geometry">
            <mxPoint x="120" y="230" as="sourcePoint" />
            <mxPoint x="340" y="240" as="targetPoint" />
          </mxGeometry>
        </mxCell>
        <mxCell id="vMFZrTkS__saMolLycXG-37" value="NÃO" style="endArrow=classic;html=1;rounded=0;fontFamily=Helvetica;fontSize=12;fontColor=default;dashed=1;exitX=0;exitY=0.5;exitDx=0;exitDy=0;" edge="1" parent="1" source="vMFZrTkS__saMolLycXG-27">
          <mxGeometry width="50" height="50" relative="1" as="geometry">
            <mxPoint x="410" y="295.0000000000001" as="sourcePoint" />
            <mxPoint x="340" y="460" as="targetPoint" />
          </mxGeometry>
        </mxCell>
        <mxCell id="vMFZrTkS__saMolLycXG-39" value="SIM" style="endArrow=classic;html=1;rounded=0;fontFamily=Helvetica;fontSize=11;fontColor=default;dashed=1;exitX=1;exitY=0.5;exitDx=0;exitDy=0;strokeColor=#808080;" edge="1" parent="1">
          <mxGeometry width="50" height="50" relative="1" as="geometry">
            <mxPoint x="464" y="460" as="sourcePoint" />
            <mxPoint x="513" y="460" as="targetPoint" />
          </mxGeometry>
        </mxCell>
        <mxCell id="vMFZrTkS__saMolLycXG-40" value="SIM" style="endArrow=classic;html=1;rounded=0;fontFamily=Helvetica;fontSize=11;fontColor=default;dashed=1;exitX=1;exitY=0.5;exitDx=0;exitDy=0;strokeColor=#808080;" edge="1" parent="1" source="vMFZrTkS__saMolLycXG-16">
          <mxGeometry width="50" height="50" relative="1" as="geometry">
            <mxPoint x="474" y="470" as="sourcePoint" />
            <mxPoint x="510" y="350" as="targetPoint" />
          </mxGeometry>
        </mxCell>
        <mxCell id="vMFZrTkS__saMolLycXG-41" value="SIM" style="endArrow=classic;html=1;rounded=0;fontFamily=Helvetica;fontSize=12;fontColor=default;dashed=1;exitX=1;exitY=0.5;exitDx=0;exitDy=0;" edge="1" parent="1" source="vMFZrTkS__saMolLycXG-22">
          <mxGeometry width="50" height="50" relative="1" as="geometry">
            <mxPoint x="474" y="360" as="sourcePoint" />
            <mxPoint x="510" y="240" as="targetPoint" />
          </mxGeometry>
        </mxCell>
        <mxCell id="vMFZrTkS__saMolLycXG-42" value="&lt;span style=&quot;font-size: 8px;&quot;&gt;Se todas as condições forem satisfatórias, segue o fluxo&lt;/span&gt;" style="text;html=1;strokeColor=none;fillColor=none;align=right;verticalAlign=middle;whiteSpace=wrap;rounded=0;fontSize=8;rotation=0;fontColor=#808080;" vertex="1" parent="1">
          <mxGeometry x="375" y="80" width="143" height="30" as="geometry" />
        </mxCell>
        <mxCell id="vMFZrTkS__saMolLycXG-43" value="&lt;span style=&quot;font-size: 8px;&quot;&gt;Caso uma ou mais condições não sejam satisfeitas, aborta o fluxo&lt;/span&gt;" style="text;html=1;strokeColor=none;fillColor=none;align=left;verticalAlign=middle;whiteSpace=wrap;rounded=0;fontSize=8;rotation=0;fontColor=#808080;" vertex="1" parent="1">
          <mxGeometry x="342.88" y="120" width="140" height="30" as="geometry" />
        </mxCell>
        <mxCell id="vMFZrTkS__saMolLycXG-44" value="&lt;span style=&quot;font-size: 15px;&quot;&gt;Solicitações simultâneas de marcação de reforço&lt;/span&gt;" style="text;html=1;strokeColor=none;fillColor=none;align=left;verticalAlign=middle;whiteSpace=wrap;rounded=0;fontSize=15;rotation=90;fontColor=#808080;" vertex="1" parent="1">
          <mxGeometry x="90" y="384" width="357.5" height="30" as="geometry" />
        </mxCell>
        <mxCell id="vMFZrTkS__saMolLycXG-45" value="&lt;font size=&quot;1&quot;&gt;Todas as datas da regra são consistentes?&lt;/font&gt;" style="rhombus;whiteSpace=wrap;html=1;fillColor=#fff2cc;strokeColor=#d6b656;rounded=0;" vertex="1" parent="1">
          <mxGeometry x="394" y="540" width="70" height="70" as="geometry" />
        </mxCell>
        <mxCell id="vMFZrTkS__saMolLycXG-46" value="NÃO" style="endArrow=classic;html=1;rounded=0;fontFamily=Helvetica;fontSize=12;fontColor=default;dashed=1;exitX=0;exitY=0.5;exitDx=0;exitDy=0;" edge="1" parent="1" source="vMFZrTkS__saMolLycXG-45">
          <mxGeometry width="50" height="50" relative="1" as="geometry">
            <mxPoint x="404" y="470" as="sourcePoint" />
            <mxPoint x="340" y="575" as="targetPoint" />
          </mxGeometry>
        </mxCell>
        <mxCell id="vMFZrTkS__saMolLycXG-47" value="SIM" style="endArrow=classic;html=1;rounded=0;fontFamily=Helvetica;fontSize=11;fontColor=default;dashed=1;exitX=1;exitY=0.5;exitDx=0;exitDy=0;strokeColor=#808080;" edge="1" parent="1" source="vMFZrTkS__saMolLycXG-45">
          <mxGeometry width="50" height="50" relative="1" as="geometry">
            <mxPoint x="474" y="470" as="sourcePoint" />
            <mxPoint x="520" y="575" as="targetPoint" />
          </mxGeometry>
        </mxCell>
        <mxCell id="vMFZrTkS__saMolLycXG-48" value="" style="endArrow=classic;html=1;rounded=0;entryX=0;entryY=0.5;entryDx=0;entryDy=0;" edge="1" parent="1" target="vMFZrTkS__saMolLycXG-131">
          <mxGeometry width="50" height="50" relative="1" as="geometry">
            <mxPoint x="520" y="390" as="sourcePoint" />
            <mxPoint x="350" y="280" as="targetPoint" />
          </mxGeometry>
        </mxCell>
        <mxCell id="vMFZrTkS__saMolLycXG-49" value="" style="endArrow=classic;html=1;rounded=0;entryX=0;entryY=0.5;entryDx=0;entryDy=0;" edge="1" parent="1" target="vMFZrTkS__saMolLycXG-131">
          <mxGeometry width="50" height="50" relative="1" as="geometry">
            <mxPoint x="520" y="510" as="sourcePoint" />
            <mxPoint x="650" y="400" as="targetPoint" />
          </mxGeometry>
        </mxCell>
        <mxCell id="vMFZrTkS__saMolLycXG-50" value="" style="endArrow=classic;html=1;rounded=0;entryX=0;entryY=0.5;entryDx=0;entryDy=0;" edge="1" parent="1" target="vMFZrTkS__saMolLycXG-131">
          <mxGeometry width="50" height="50" relative="1" as="geometry">
            <mxPoint x="520" y="270" as="sourcePoint" />
            <mxPoint x="580" y="400" as="targetPoint" />
          </mxGeometry>
        </mxCell>
        <mxCell id="vMFZrTkS__saMolLycXG-51" value="&lt;font style=&quot;font-size: 9px;&quot;&gt;Tem Prioridade para marcar reforços?&lt;/font&gt;" style="rhombus;whiteSpace=wrap;html=1;fillColor=#fff2cc;strokeColor=#d6b656;rounded=0;" vertex="1" parent="1">
          <mxGeometry x="805" y="350" width="80" height="80" as="geometry" />
        </mxCell>
        <mxCell id="vMFZrTkS__saMolLycXG-52" value="&lt;font style=&quot;font-size: 9px;&quot;&gt;&lt;span style=&quot;font-size: 9px;&quot;&gt;Servidor estará de licença prêmio ou férias no mês da marcação do reforço?&lt;/span&gt;&lt;/font&gt;" style="rhombus;whiteSpace=wrap;html=1;fillColor=#fff2cc;strokeColor=#d6b656;rounded=0;fontSize=9;" vertex="1" parent="1">
          <mxGeometry x="687" y="350.5" width="80" height="80" as="geometry" />
        </mxCell>
        <mxCell id="vMFZrTkS__saMolLycXG-54" value="NÃO" style="endArrow=classic;html=1;rounded=0;fontFamily=Helvetica;fontSize=12;fontColor=default;dashed=1;" edge="1" parent="1">
          <mxGeometry width="50" height="50" relative="1" as="geometry">
            <mxPoint x="390" y="350" as="sourcePoint" />
            <mxPoint x="340" y="350" as="targetPoint" />
            <Array as="points" />
          </mxGeometry>
        </mxCell>
        <mxCell id="vMFZrTkS__saMolLycXG-58" value="&lt;span style=&quot;font-size: 15px;&quot;&gt;Fluxo de ida&lt;/span&gt;" style="text;html=1;strokeColor=#d79b00;fillColor=#ffe6cc;align=center;verticalAlign=middle;whiteSpace=wrap;rounded=0;fontSize=15;rotation=90;" vertex="1" parent="1">
          <mxGeometry x="167.5" y="377" width="285.5" height="30" as="geometry" />
        </mxCell>
        <mxCell id="vMFZrTkS__saMolLycXG-60" value="&lt;span style=&quot;font-size: 15px;&quot;&gt;Fluxo de retorno&lt;/span&gt;" style="text;html=1;strokeColor=#6c8ebf;fillColor=#dae8fc;align=center;verticalAlign=middle;whiteSpace=wrap;rounded=0;fontSize=15;rotation=90;" vertex="1" parent="1">
          <mxGeometry x="-57.12" y="402.13" width="540" height="30" as="geometry" />
        </mxCell>
        <mxCell id="vMFZrTkS__saMolLycXG-62" value="" style="endArrow=classic;html=1;rounded=0;dashed=1;labelBackgroundColor=#1736FF;labelBorderColor=none;strokeColor=#5E74FF;fontFamily=Helvetica;fontSize=15;fontColor=#365EFF;exitX=0.041;exitY=1.075;exitDx=0;exitDy=0;exitPerimeter=0;" edge="1" parent="1">
          <mxGeometry width="50" height="50" relative="1" as="geometry">
            <mxPoint x="196.6300000000001" y="169.26999999999998" as="sourcePoint" />
            <mxPoint x="171" y="169" as="targetPoint" />
          </mxGeometry>
        </mxCell>
        <mxCell id="vMFZrTkS__saMolLycXG-65" value="" style="endArrow=classic;html=1;rounded=0;dashed=1;labelBackgroundColor=#1736FF;labelBorderColor=none;strokeColor=#5E74FF;fontFamily=Helvetica;fontSize=15;fontColor=#365EFF;exitX=0.041;exitY=1.075;exitDx=0;exitDy=0;exitPerimeter=0;" edge="1" parent="1">
          <mxGeometry width="50" height="50" relative="1" as="geometry">
            <mxPoint x="196.6300000000001" y="179.26999999999998" as="sourcePoint" />
            <mxPoint x="171" y="179" as="targetPoint" />
          </mxGeometry>
        </mxCell>
        <mxCell id="vMFZrTkS__saMolLycXG-66" value="" style="endArrow=classic;html=1;rounded=0;dashed=1;labelBackgroundColor=#1736FF;labelBorderColor=none;strokeColor=#5E74FF;fontFamily=Helvetica;fontSize=15;fontColor=#365EFF;exitX=0.041;exitY=1.075;exitDx=0;exitDy=0;exitPerimeter=0;" edge="1" parent="1">
          <mxGeometry width="50" height="50" relative="1" as="geometry">
            <mxPoint x="196.6300000000001" y="189.26999999999998" as="sourcePoint" />
            <mxPoint x="171" y="189" as="targetPoint" />
          </mxGeometry>
        </mxCell>
        <mxCell id="vMFZrTkS__saMolLycXG-67" value="" style="endArrow=classic;html=1;rounded=0;dashed=1;labelBackgroundColor=#1736FF;labelBorderColor=none;strokeColor=#5E74FF;fontFamily=Helvetica;fontSize=15;fontColor=#365EFF;exitX=0.041;exitY=1.075;exitDx=0;exitDy=0;exitPerimeter=0;" edge="1" parent="1">
          <mxGeometry width="50" height="50" relative="1" as="geometry">
            <mxPoint x="196.6300000000001" y="363.27" as="sourcePoint" />
            <mxPoint x="171" y="363" as="targetPoint" />
          </mxGeometry>
        </mxCell>
        <mxCell id="vMFZrTkS__saMolLycXG-68" value="" style="endArrow=classic;html=1;rounded=0;dashed=1;labelBackgroundColor=#1736FF;labelBorderColor=none;strokeColor=#5E74FF;fontFamily=Helvetica;fontSize=15;fontColor=#365EFF;exitX=0.041;exitY=1.075;exitDx=0;exitDy=0;exitPerimeter=0;" edge="1" parent="1">
          <mxGeometry width="50" height="50" relative="1" as="geometry">
            <mxPoint x="196.6300000000001" y="353.27" as="sourcePoint" />
            <mxPoint x="171" y="353" as="targetPoint" />
          </mxGeometry>
        </mxCell>
        <mxCell id="vMFZrTkS__saMolLycXG-69" value="" style="endArrow=classic;html=1;rounded=0;dashed=1;labelBackgroundColor=#1736FF;labelBorderColor=none;strokeColor=#5E74FF;fontFamily=Helvetica;fontSize=15;fontColor=#365EFF;exitX=0.041;exitY=1.075;exitDx=0;exitDy=0;exitPerimeter=0;" edge="1" parent="1">
          <mxGeometry width="50" height="50" relative="1" as="geometry">
            <mxPoint x="196.6300000000001" y="343.27" as="sourcePoint" />
            <mxPoint x="171" y="343" as="targetPoint" />
          </mxGeometry>
        </mxCell>
        <mxCell id="vMFZrTkS__saMolLycXG-70" value="" style="endArrow=classic;html=1;rounded=0;dashed=1;labelBackgroundColor=#1736FF;labelBorderColor=none;strokeColor=#5E74FF;fontFamily=Helvetica;fontSize=15;fontColor=#365EFF;exitX=0.041;exitY=1.075;exitDx=0;exitDy=0;exitPerimeter=0;" edge="1" parent="1">
          <mxGeometry width="50" height="50" relative="1" as="geometry">
            <mxPoint x="196.6300000000001" y="521.27" as="sourcePoint" />
            <mxPoint x="171" y="521" as="targetPoint" />
          </mxGeometry>
        </mxCell>
        <mxCell id="vMFZrTkS__saMolLycXG-71" value="" style="endArrow=classic;html=1;rounded=0;dashed=1;labelBackgroundColor=#1736FF;labelBorderColor=none;strokeColor=#5E74FF;fontFamily=Helvetica;fontSize=15;fontColor=#365EFF;exitX=0.041;exitY=1.075;exitDx=0;exitDy=0;exitPerimeter=0;" edge="1" parent="1">
          <mxGeometry width="50" height="50" relative="1" as="geometry">
            <mxPoint x="196.6300000000001" y="531.27" as="sourcePoint" />
            <mxPoint x="171" y="531" as="targetPoint" />
          </mxGeometry>
        </mxCell>
        <mxCell id="vMFZrTkS__saMolLycXG-72" value="" style="endArrow=classic;html=1;rounded=0;dashed=1;labelBackgroundColor=#1736FF;labelBorderColor=none;strokeColor=#5E74FF;fontFamily=Helvetica;fontSize=15;fontColor=#365EFF;exitX=0.041;exitY=1.075;exitDx=0;exitDy=0;exitPerimeter=0;" edge="1" parent="1">
          <mxGeometry width="50" height="50" relative="1" as="geometry">
            <mxPoint x="196.6300000000001" y="541.27" as="sourcePoint" />
            <mxPoint x="171" y="541" as="targetPoint" />
          </mxGeometry>
        </mxCell>
        <mxCell id="vMFZrTkS__saMolLycXG-73" value="" style="endArrow=classic;html=1;rounded=0;dashed=1;labelBackgroundColor=#1736FF;labelBorderColor=none;strokeColor=#5E74FF;fontFamily=Helvetica;fontSize=15;fontColor=#365EFF;exitX=0.041;exitY=1.075;exitDx=0;exitDy=0;exitPerimeter=0;" edge="1" parent="1">
          <mxGeometry width="50" height="50" relative="1" as="geometry">
            <mxPoint x="195.6300000000001" y="641.27" as="sourcePoint" />
            <mxPoint x="170" y="641" as="targetPoint" />
          </mxGeometry>
        </mxCell>
        <mxCell id="vMFZrTkS__saMolLycXG-74" value="" style="endArrow=classic;html=1;rounded=0;dashed=1;labelBackgroundColor=#1736FF;labelBorderColor=none;strokeColor=#5E74FF;fontFamily=Helvetica;fontSize=15;fontColor=#365EFF;exitX=0.041;exitY=1.075;exitDx=0;exitDy=0;exitPerimeter=0;" edge="1" parent="1">
          <mxGeometry width="50" height="50" relative="1" as="geometry">
            <mxPoint x="195.6300000000001" y="651.27" as="sourcePoint" />
            <mxPoint x="170" y="651" as="targetPoint" />
          </mxGeometry>
        </mxCell>
        <mxCell id="vMFZrTkS__saMolLycXG-75" value="" style="endArrow=classic;html=1;rounded=0;dashed=1;labelBackgroundColor=#1736FF;labelBorderColor=none;strokeColor=#5E74FF;fontFamily=Helvetica;fontSize=15;fontColor=#365EFF;exitX=0.041;exitY=1.075;exitDx=0;exitDy=0;exitPerimeter=0;" edge="1" parent="1">
          <mxGeometry width="50" height="50" relative="1" as="geometry">
            <mxPoint x="195.6300000000001" y="662.27" as="sourcePoint" />
            <mxPoint x="170" y="662" as="targetPoint" />
          </mxGeometry>
        </mxCell>
        <mxCell id="vMFZrTkS__saMolLycXG-79" value="" style="endArrow=classic;html=1;rounded=0;dashed=1;labelBackgroundColor=#1736FF;labelBorderColor=none;strokeColor=#d79b00;fontFamily=Helvetica;fontSize=15;fontColor=#365EFF;exitX=0.092;exitY=0.005;exitDx=0;exitDy=0;exitPerimeter=0;fillColor=#ffe6cc;" edge="1" parent="1" source="vMFZrTkS__saMolLycXG-58">
          <mxGeometry width="50" height="50" relative="1" as="geometry">
            <mxPoint x="206.6300000000001" y="179.26999999999998" as="sourcePoint" />
            <mxPoint x="350" y="276" as="targetPoint" />
          </mxGeometry>
        </mxCell>
        <mxCell id="vMFZrTkS__saMolLycXG-80" value="" style="endArrow=classic;html=1;rounded=0;dashed=1;labelBackgroundColor=#1736FF;labelBorderColor=none;strokeColor=#d79b00;fontFamily=Helvetica;fontSize=15;fontColor=#365EFF;exitX=0.092;exitY=0.005;exitDx=0;exitDy=0;exitPerimeter=0;fillColor=#ffe6cc;" edge="1" parent="1">
          <mxGeometry width="50" height="50" relative="1" as="geometry">
            <mxPoint x="325.1" y="285.51599999999996" as="sourcePoint" />
            <mxPoint x="349.9999999999999" y="286" as="targetPoint" />
          </mxGeometry>
        </mxCell>
        <mxCell id="vMFZrTkS__saMolLycXG-81" value="" style="endArrow=classic;html=1;rounded=0;dashed=1;labelBackgroundColor=#1736FF;labelBorderColor=none;strokeColor=#d79b00;fontFamily=Helvetica;fontSize=15;fontColor=#365EFF;exitX=0.092;exitY=0.005;exitDx=0;exitDy=0;exitPerimeter=0;fillColor=#ffe6cc;" edge="1" parent="1">
          <mxGeometry width="50" height="50" relative="1" as="geometry">
            <mxPoint x="325.1" y="295.51599999999996" as="sourcePoint" />
            <mxPoint x="349.9999999999999" y="296" as="targetPoint" />
          </mxGeometry>
        </mxCell>
        <mxCell id="vMFZrTkS__saMolLycXG-82" value="" style="endArrow=classic;html=1;rounded=0;dashed=1;labelBackgroundColor=#1736FF;labelBorderColor=none;strokeColor=#d79b00;fontFamily=Helvetica;fontSize=15;fontColor=#365EFF;exitX=0.092;exitY=0.005;exitDx=0;exitDy=0;exitPerimeter=0;fillColor=#ffe6cc;" edge="1" parent="1">
          <mxGeometry width="50" height="50" relative="1" as="geometry">
            <mxPoint x="325.0999999999999" y="370.51599999999996" as="sourcePoint" />
            <mxPoint x="349.9999999999998" y="371" as="targetPoint" />
          </mxGeometry>
        </mxCell>
        <mxCell id="vMFZrTkS__saMolLycXG-83" value="" style="endArrow=classic;html=1;rounded=0;dashed=1;labelBackgroundColor=#1736FF;labelBorderColor=none;strokeColor=#d79b00;fontFamily=Helvetica;fontSize=15;fontColor=#365EFF;exitX=0.092;exitY=0.005;exitDx=0;exitDy=0;exitPerimeter=0;fillColor=#ffe6cc;" edge="1" parent="1">
          <mxGeometry width="50" height="50" relative="1" as="geometry">
            <mxPoint x="325.0999999999999" y="380.51599999999996" as="sourcePoint" />
            <mxPoint x="349.9999999999998" y="381" as="targetPoint" />
          </mxGeometry>
        </mxCell>
        <mxCell id="vMFZrTkS__saMolLycXG-84" value="" style="endArrow=classic;html=1;rounded=0;dashed=1;labelBackgroundColor=#1736FF;labelBorderColor=none;strokeColor=#d79b00;fontFamily=Helvetica;fontSize=15;fontColor=#365EFF;exitX=0.092;exitY=0.005;exitDx=0;exitDy=0;exitPerimeter=0;fillColor=#ffe6cc;" edge="1" parent="1">
          <mxGeometry width="50" height="50" relative="1" as="geometry">
            <mxPoint x="325.0999999999999" y="390.51599999999996" as="sourcePoint" />
            <mxPoint x="349.9999999999998" y="391" as="targetPoint" />
          </mxGeometry>
        </mxCell>
        <mxCell id="vMFZrTkS__saMolLycXG-85" value="" style="endArrow=classic;html=1;rounded=0;dashed=1;labelBackgroundColor=#1736FF;labelBorderColor=none;strokeColor=#d79b00;fontFamily=Helvetica;fontSize=15;fontColor=#365EFF;exitX=0.092;exitY=0.005;exitDx=0;exitDy=0;exitPerimeter=0;fillColor=#ffe6cc;" edge="1" parent="1">
          <mxGeometry width="50" height="50" relative="1" as="geometry">
            <mxPoint x="326.0999999999999" y="497.51599999999996" as="sourcePoint" />
            <mxPoint x="350.9999999999998" y="498" as="targetPoint" />
          </mxGeometry>
        </mxCell>
        <mxCell id="vMFZrTkS__saMolLycXG-86" value="" style="endArrow=classic;html=1;rounded=0;dashed=1;labelBackgroundColor=#1736FF;labelBorderColor=none;strokeColor=#d79b00;fontFamily=Helvetica;fontSize=15;fontColor=#365EFF;exitX=0.092;exitY=0.005;exitDx=0;exitDy=0;exitPerimeter=0;fillColor=#ffe6cc;" edge="1" parent="1">
          <mxGeometry width="50" height="50" relative="1" as="geometry">
            <mxPoint x="326.0999999999999" y="507.51599999999996" as="sourcePoint" />
            <mxPoint x="350.9999999999998" y="508" as="targetPoint" />
          </mxGeometry>
        </mxCell>
        <mxCell id="vMFZrTkS__saMolLycXG-87" value="" style="endArrow=classic;html=1;rounded=0;dashed=1;labelBackgroundColor=#1736FF;labelBorderColor=none;strokeColor=#d79b00;fontFamily=Helvetica;fontSize=15;fontColor=#365EFF;exitX=0.092;exitY=0.005;exitDx=0;exitDy=0;exitPerimeter=0;fillColor=#ffe6cc;" edge="1" parent="1">
          <mxGeometry width="50" height="50" relative="1" as="geometry">
            <mxPoint x="326.0999999999999" y="518.516" as="sourcePoint" />
            <mxPoint x="350.9999999999998" y="519" as="targetPoint" />
          </mxGeometry>
        </mxCell>
        <mxCell id="vMFZrTkS__saMolLycXG-88" value="" style="endArrow=classic;html=1;rounded=0;dashed=1;labelBackgroundColor=#1736FF;labelBorderColor=none;strokeColor=#5E74FF;fontFamily=Helvetica;fontSize=15;fontColor=#365EFF;exitX=0.041;exitY=1.075;exitDx=0;exitDy=0;exitPerimeter=0;" edge="1" parent="1">
          <mxGeometry width="50" height="50" relative="1" as="geometry">
            <mxPoint x="337.6300000000001" y="66.26999999999998" as="sourcePoint" />
            <mxPoint x="312" y="66" as="targetPoint" />
          </mxGeometry>
        </mxCell>
        <mxCell id="vMFZrTkS__saMolLycXG-89" value="" style="endArrow=classic;html=1;rounded=0;dashed=1;labelBackgroundColor=#1736FF;labelBorderColor=none;strokeColor=#5E74FF;fontFamily=Helvetica;fontSize=15;fontColor=#365EFF;exitX=0.041;exitY=1.075;exitDx=0;exitDy=0;exitPerimeter=0;" edge="1" parent="1">
          <mxGeometry width="50" height="50" relative="1" as="geometry">
            <mxPoint x="337.6300000000001" y="76.26999999999998" as="sourcePoint" />
            <mxPoint x="312" y="76" as="targetPoint" />
          </mxGeometry>
        </mxCell>
        <mxCell id="vMFZrTkS__saMolLycXG-90" value="" style="endArrow=classic;html=1;rounded=0;dashed=1;labelBackgroundColor=#1736FF;labelBorderColor=none;strokeColor=#5E74FF;fontFamily=Helvetica;fontSize=15;fontColor=#365EFF;exitX=0.041;exitY=1.075;exitDx=0;exitDy=0;exitPerimeter=0;" edge="1" parent="1">
          <mxGeometry width="50" height="50" relative="1" as="geometry">
            <mxPoint x="337.6300000000001" y="86.26999999999987" as="sourcePoint" />
            <mxPoint x="312" y="86.00000000000011" as="targetPoint" />
          </mxGeometry>
        </mxCell>
        <mxCell id="vMFZrTkS__saMolLycXG-91" value="" style="endArrow=classic;html=1;rounded=0;dashed=1;labelBackgroundColor=#1736FF;labelBorderColor=none;strokeColor=#5E74FF;fontFamily=Helvetica;fontSize=15;fontColor=#365EFF;exitX=0.041;exitY=1.075;exitDx=0;exitDy=0;exitPerimeter=0;" edge="1" parent="1">
          <mxGeometry width="50" height="50" relative="1" as="geometry">
            <mxPoint x="337.6300000000001" y="703.27" as="sourcePoint" />
            <mxPoint x="312" y="703" as="targetPoint" />
          </mxGeometry>
        </mxCell>
        <mxCell id="vMFZrTkS__saMolLycXG-92" value="" style="endArrow=classic;html=1;rounded=0;dashed=1;labelBackgroundColor=#1736FF;labelBorderColor=none;strokeColor=#5E74FF;fontFamily=Helvetica;fontSize=15;fontColor=#365EFF;exitX=0.041;exitY=1.075;exitDx=0;exitDy=0;exitPerimeter=0;" edge="1" parent="1">
          <mxGeometry width="50" height="50" relative="1" as="geometry">
            <mxPoint x="337.6300000000001" y="714.27" as="sourcePoint" />
            <mxPoint x="312" y="714" as="targetPoint" />
          </mxGeometry>
        </mxCell>
        <mxCell id="vMFZrTkS__saMolLycXG-93" value="" style="endArrow=classic;html=1;rounded=0;dashed=1;labelBackgroundColor=#1736FF;labelBorderColor=none;strokeColor=#5E74FF;fontFamily=Helvetica;fontSize=15;fontColor=#365EFF;exitX=0.041;exitY=1.075;exitDx=0;exitDy=0;exitPerimeter=0;" edge="1" parent="1">
          <mxGeometry width="50" height="50" relative="1" as="geometry">
            <mxPoint x="337.6300000000001" y="723.2699999999999" as="sourcePoint" />
            <mxPoint x="312" y="723.0000000000001" as="targetPoint" />
          </mxGeometry>
        </mxCell>
        <mxCell id="vMFZrTkS__saMolLycXG-94" value="" style="endArrow=classic;html=1;rounded=0;dashed=1;labelBackgroundColor=#1736FF;labelBorderColor=none;strokeColor=#5E74FF;fontFamily=Helvetica;fontSize=15;fontColor=#365EFF;exitX=0.041;exitY=1.075;exitDx=0;exitDy=0;exitPerimeter=0;" edge="1" parent="1">
          <mxGeometry width="50" height="50" relative="1" as="geometry">
            <mxPoint x="337.6300000000001" y="559.27" as="sourcePoint" />
            <mxPoint x="312" y="559" as="targetPoint" />
          </mxGeometry>
        </mxCell>
        <mxCell id="vMFZrTkS__saMolLycXG-95" value="" style="endArrow=classic;html=1;rounded=0;dashed=1;labelBackgroundColor=#1736FF;labelBorderColor=none;strokeColor=#5E74FF;fontFamily=Helvetica;fontSize=15;fontColor=#365EFF;exitX=0.041;exitY=1.075;exitDx=0;exitDy=0;exitPerimeter=0;" edge="1" parent="1">
          <mxGeometry width="50" height="50" relative="1" as="geometry">
            <mxPoint x="337.6300000000001" y="569.27" as="sourcePoint" />
            <mxPoint x="312" y="569" as="targetPoint" />
          </mxGeometry>
        </mxCell>
        <mxCell id="vMFZrTkS__saMolLycXG-96" value="" style="endArrow=classic;html=1;rounded=0;dashed=1;labelBackgroundColor=#1736FF;labelBorderColor=none;strokeColor=#5E74FF;fontFamily=Helvetica;fontSize=15;fontColor=#365EFF;exitX=0.041;exitY=1.075;exitDx=0;exitDy=0;exitPerimeter=0;" edge="1" parent="1">
          <mxGeometry width="50" height="50" relative="1" as="geometry">
            <mxPoint x="337.6300000000001" y="580.27" as="sourcePoint" />
            <mxPoint x="312" y="580" as="targetPoint" />
          </mxGeometry>
        </mxCell>
        <mxCell id="vMFZrTkS__saMolLycXG-97" value="" style="endArrow=classic;html=1;rounded=0;dashed=1;labelBackgroundColor=#1736FF;labelBorderColor=none;strokeColor=#5E74FF;fontFamily=Helvetica;fontSize=15;fontColor=#365EFF;exitX=0.041;exitY=1.075;exitDx=0;exitDy=0;exitPerimeter=0;" edge="1" parent="1">
          <mxGeometry width="50" height="50" relative="1" as="geometry">
            <mxPoint x="337.6300000000001" y="167.26999999999998" as="sourcePoint" />
            <mxPoint x="312" y="167" as="targetPoint" />
          </mxGeometry>
        </mxCell>
        <mxCell id="vMFZrTkS__saMolLycXG-98" value="" style="endArrow=classic;html=1;rounded=0;dashed=1;labelBackgroundColor=#1736FF;labelBorderColor=none;strokeColor=#5E74FF;fontFamily=Helvetica;fontSize=15;fontColor=#365EFF;exitX=0.041;exitY=1.075;exitDx=0;exitDy=0;exitPerimeter=0;" edge="1" parent="1">
          <mxGeometry width="50" height="50" relative="1" as="geometry">
            <mxPoint x="337.6300000000001" y="177.26999999999998" as="sourcePoint" />
            <mxPoint x="312" y="177" as="targetPoint" />
          </mxGeometry>
        </mxCell>
        <mxCell id="vMFZrTkS__saMolLycXG-99" value="" style="endArrow=classic;html=1;rounded=0;dashed=1;labelBackgroundColor=#1736FF;labelBorderColor=none;strokeColor=#5E74FF;fontFamily=Helvetica;fontSize=15;fontColor=#365EFF;exitX=0.041;exitY=1.075;exitDx=0;exitDy=0;exitPerimeter=0;" edge="1" parent="1">
          <mxGeometry width="50" height="50" relative="1" as="geometry">
            <mxPoint x="337.6300000000001" y="187.26999999999987" as="sourcePoint" />
            <mxPoint x="312" y="187.0000000000001" as="targetPoint" />
          </mxGeometry>
        </mxCell>
        <mxCell id="vMFZrTkS__saMolLycXG-100" value="" style="endArrow=classic;html=1;rounded=0;dashed=1;labelBackgroundColor=#1736FF;labelBorderColor=none;strokeColor=#d79b00;fontFamily=Helvetica;fontSize=15;fontColor=#365EFF;exitX=0.092;exitY=0.005;exitDx=0;exitDy=0;exitPerimeter=0;fillColor=#ffe6cc;" edge="1" parent="1">
          <mxGeometry width="50" height="50" relative="1" as="geometry">
            <mxPoint x="522.0999999999999" y="66.51600000000008" as="sourcePoint" />
            <mxPoint x="547" y="67" as="targetPoint" />
          </mxGeometry>
        </mxCell>
        <mxCell id="vMFZrTkS__saMolLycXG-101" value="" style="endArrow=classic;html=1;rounded=0;dashed=1;labelBackgroundColor=#1736FF;labelBorderColor=none;strokeColor=#d79b00;fontFamily=Helvetica;fontSize=15;fontColor=#365EFF;exitX=0.092;exitY=0.005;exitDx=0;exitDy=0;exitPerimeter=0;fillColor=#ffe6cc;" edge="1" parent="1">
          <mxGeometry width="50" height="50" relative="1" as="geometry">
            <mxPoint x="522.0999999999999" y="76.51600000000008" as="sourcePoint" />
            <mxPoint x="547" y="77" as="targetPoint" />
          </mxGeometry>
        </mxCell>
        <mxCell id="vMFZrTkS__saMolLycXG-102" value="" style="endArrow=classic;html=1;rounded=0;dashed=1;labelBackgroundColor=#1736FF;labelBorderColor=none;strokeColor=#d79b00;fontFamily=Helvetica;fontSize=15;fontColor=#365EFF;exitX=0.092;exitY=0.005;exitDx=0;exitDy=0;exitPerimeter=0;fillColor=#ffe6cc;" edge="1" parent="1">
          <mxGeometry width="50" height="50" relative="1" as="geometry">
            <mxPoint x="522.0999999999999" y="86.51600000000008" as="sourcePoint" />
            <mxPoint x="547" y="87" as="targetPoint" />
          </mxGeometry>
        </mxCell>
        <mxCell id="vMFZrTkS__saMolLycXG-103" value="" style="endArrow=classic;html=1;rounded=0;dashed=1;labelBackgroundColor=#1736FF;labelBorderColor=none;strokeColor=#d79b00;fontFamily=Helvetica;fontSize=15;fontColor=#365EFF;exitX=0.092;exitY=0.005;exitDx=0;exitDy=0;exitPerimeter=0;fillColor=#ffe6cc;" edge="1" parent="1">
          <mxGeometry width="50" height="50" relative="1" as="geometry">
            <mxPoint x="523.0999999999999" y="166.51600000000008" as="sourcePoint" />
            <mxPoint x="548" y="167" as="targetPoint" />
          </mxGeometry>
        </mxCell>
        <mxCell id="vMFZrTkS__saMolLycXG-104" value="" style="endArrow=classic;html=1;rounded=0;dashed=1;labelBackgroundColor=#1736FF;labelBorderColor=none;strokeColor=#d79b00;fontFamily=Helvetica;fontSize=15;fontColor=#365EFF;exitX=0.092;exitY=0.005;exitDx=0;exitDy=0;exitPerimeter=0;fillColor=#ffe6cc;" edge="1" parent="1">
          <mxGeometry width="50" height="50" relative="1" as="geometry">
            <mxPoint x="523.0999999999999" y="176.51600000000008" as="sourcePoint" />
            <mxPoint x="548" y="177" as="targetPoint" />
          </mxGeometry>
        </mxCell>
        <mxCell id="vMFZrTkS__saMolLycXG-105" value="" style="endArrow=classic;html=1;rounded=0;dashed=1;labelBackgroundColor=#1736FF;labelBorderColor=none;strokeColor=#d79b00;fontFamily=Helvetica;fontSize=15;fontColor=#365EFF;exitX=0.092;exitY=0.005;exitDx=0;exitDy=0;exitPerimeter=0;fillColor=#ffe6cc;" edge="1" parent="1">
          <mxGeometry width="50" height="50" relative="1" as="geometry">
            <mxPoint x="523.0999999999999" y="186.51600000000008" as="sourcePoint" />
            <mxPoint x="548" y="187" as="targetPoint" />
          </mxGeometry>
        </mxCell>
        <mxCell id="vMFZrTkS__saMolLycXG-106" value="" style="endArrow=classic;html=1;rounded=0;dashed=1;labelBackgroundColor=#1736FF;labelBorderColor=none;strokeColor=#d79b00;fontFamily=Helvetica;fontSize=15;fontColor=#365EFF;exitX=0.092;exitY=0.005;exitDx=0;exitDy=0;exitPerimeter=0;fillColor=#ffe6cc;" edge="1" parent="1">
          <mxGeometry width="50" height="50" relative="1" as="geometry">
            <mxPoint x="523.0999999999999" y="559.5160000000001" as="sourcePoint" />
            <mxPoint x="548" y="560" as="targetPoint" />
          </mxGeometry>
        </mxCell>
        <mxCell id="vMFZrTkS__saMolLycXG-107" value="" style="endArrow=classic;html=1;rounded=0;dashed=1;labelBackgroundColor=#1736FF;labelBorderColor=none;strokeColor=#d79b00;fontFamily=Helvetica;fontSize=15;fontColor=#365EFF;exitX=0.092;exitY=0.005;exitDx=0;exitDy=0;exitPerimeter=0;fillColor=#ffe6cc;" edge="1" parent="1">
          <mxGeometry width="50" height="50" relative="1" as="geometry">
            <mxPoint x="523.0999999999999" y="569.5160000000001" as="sourcePoint" />
            <mxPoint x="548" y="570" as="targetPoint" />
          </mxGeometry>
        </mxCell>
        <mxCell id="vMFZrTkS__saMolLycXG-108" value="" style="endArrow=classic;html=1;rounded=0;dashed=1;labelBackgroundColor=#1736FF;labelBorderColor=none;strokeColor=#d79b00;fontFamily=Helvetica;fontSize=15;fontColor=#365EFF;exitX=0.092;exitY=0.005;exitDx=0;exitDy=0;exitPerimeter=0;fillColor=#ffe6cc;" edge="1" parent="1">
          <mxGeometry width="50" height="50" relative="1" as="geometry">
            <mxPoint x="523.0999999999999" y="579.5160000000001" as="sourcePoint" />
            <mxPoint x="548" y="580" as="targetPoint" />
          </mxGeometry>
        </mxCell>
        <mxCell id="vMFZrTkS__saMolLycXG-109" value="" style="endArrow=classic;html=1;rounded=0;dashed=1;labelBackgroundColor=#1736FF;labelBorderColor=none;strokeColor=#d79b00;fontFamily=Helvetica;fontSize=15;fontColor=#365EFF;exitX=0.092;exitY=0.005;exitDx=0;exitDy=0;exitPerimeter=0;fillColor=#ffe6cc;" edge="1" parent="1">
          <mxGeometry width="50" height="50" relative="1" as="geometry">
            <mxPoint x="523.0999999999999" y="709.5160000000001" as="sourcePoint" />
            <mxPoint x="548" y="710" as="targetPoint" />
          </mxGeometry>
        </mxCell>
        <mxCell id="vMFZrTkS__saMolLycXG-110" value="" style="endArrow=classic;html=1;rounded=0;dashed=1;labelBackgroundColor=#1736FF;labelBorderColor=none;strokeColor=#d79b00;fontFamily=Helvetica;fontSize=15;fontColor=#365EFF;exitX=0.092;exitY=0.005;exitDx=0;exitDy=0;exitPerimeter=0;fillColor=#ffe6cc;" edge="1" parent="1">
          <mxGeometry width="50" height="50" relative="1" as="geometry">
            <mxPoint x="523.0999999999999" y="719.5160000000001" as="sourcePoint" />
            <mxPoint x="548" y="720.0000000000002" as="targetPoint" />
          </mxGeometry>
        </mxCell>
        <mxCell id="vMFZrTkS__saMolLycXG-111" value="" style="endArrow=classic;html=1;rounded=0;dashed=1;labelBackgroundColor=#1736FF;labelBorderColor=none;strokeColor=#d79b00;fontFamily=Helvetica;fontSize=15;fontColor=#365EFF;exitX=0.092;exitY=0.005;exitDx=0;exitDy=0;exitPerimeter=0;fillColor=#ffe6cc;" edge="1" parent="1">
          <mxGeometry width="50" height="50" relative="1" as="geometry">
            <mxPoint x="523.0999999999999" y="729.5160000000001" as="sourcePoint" />
            <mxPoint x="548" y="730" as="targetPoint" />
          </mxGeometry>
        </mxCell>
        <mxCell id="vMFZrTkS__saMolLycXG-114" value="" style="endArrow=classic;html=1;rounded=0;entryX=0;entryY=0.5;entryDx=0;entryDy=0;exitX=1;exitY=0.5;exitDx=0;exitDy=0;strokeColor=#808080;" edge="1" parent="1" source="vMFZrTkS__saMolLycXG-52" target="vMFZrTkS__saMolLycXG-51">
          <mxGeometry width="50" height="50" relative="1" as="geometry">
            <mxPoint x="790" y="390" as="sourcePoint" />
            <mxPoint x="850" y="390" as="targetPoint" />
            <Array as="points">
              <mxPoint x="800" y="390" />
            </Array>
          </mxGeometry>
        </mxCell>
        <mxCell id="vMFZrTkS__saMolLycXG-115" value="NÃO" style="edgeLabel;html=1;align=center;verticalAlign=middle;resizable=0;points=[];fontSize=9;rounded=0;" vertex="1" connectable="0" parent="vMFZrTkS__saMolLycXG-114">
          <mxGeometry x="-0.3788" y="3" relative="1" as="geometry">
            <mxPoint x="2" y="3" as="offset" />
          </mxGeometry>
        </mxCell>
        <mxCell id="vMFZrTkS__saMolLycXG-116" value="" style="edgeStyle=segmentEdgeStyle;endArrow=classic;html=1;rounded=0;exitX=0.5;exitY=0;exitDx=0;exitDy=0;entryX=0.135;entryY=-0.071;entryDx=0;entryDy=0;entryPerimeter=0;strokeColor=#808080;" edge="1" parent="1" source="vMFZrTkS__saMolLycXG-131" target="vMFZrTkS__saMolLycXG-60">
          <mxGeometry width="50" height="50" relative="1" as="geometry">
            <mxPoint x="631" y="360.0000000000001" as="sourcePoint" />
            <mxPoint x="240" y="180" as="targetPoint" />
            <Array as="points">
              <mxPoint x="610" y="220" />
            </Array>
          </mxGeometry>
        </mxCell>
        <mxCell id="vMFZrTkS__saMolLycXG-117" value="SIM" style="edgeLabel;html=1;align=center;verticalAlign=middle;resizable=0;points=[];fontSize=9;rounded=0;" vertex="1" connectable="0" parent="vMFZrTkS__saMolLycXG-116">
          <mxGeometry x="-0.4269" relative="1" as="geometry">
            <mxPoint x="15" y="122" as="offset" />
          </mxGeometry>
        </mxCell>
        <mxCell id="vMFZrTkS__saMolLycXG-120" value="" style="endArrow=classic;html=1;rounded=0;exitX=1;exitY=0.5;exitDx=0;exitDy=0;entryX=0;entryY=0.5;entryDx=0;entryDy=0;strokeColor=#808080;" edge="1" parent="1" source="vMFZrTkS__saMolLycXG-51" target="vMFZrTkS__saMolLycXG-193">
          <mxGeometry width="50" height="50" relative="1" as="geometry">
            <mxPoint x="800" y="400" as="sourcePoint" />
            <mxPoint x="921" y="390" as="targetPoint" />
            <Array as="points" />
          </mxGeometry>
        </mxCell>
        <mxCell id="vMFZrTkS__saMolLycXG-121" value="NÃO" style="edgeLabel;html=1;align=center;verticalAlign=middle;resizable=0;points=[];fontSize=9;rounded=0;" vertex="1" connectable="0" parent="vMFZrTkS__saMolLycXG-120">
          <mxGeometry x="-0.3788" y="3" relative="1" as="geometry">
            <mxPoint x="3" y="3" as="offset" />
          </mxGeometry>
        </mxCell>
        <mxCell id="vMFZrTkS__saMolLycXG-125" value="" style="edgeStyle=segmentEdgeStyle;endArrow=classic;html=1;rounded=0;exitX=1;exitY=0.5;exitDx=0;exitDy=0;strokeColor=#808080;entryX=0.098;entryY=-0.071;entryDx=0;entryDy=0;entryPerimeter=0;" edge="1" parent="1" source="vMFZrTkS__saMolLycXG-197" target="vMFZrTkS__saMolLycXG-60">
          <mxGeometry width="50" height="50" relative="1" as="geometry">
            <mxPoint x="961" y="350" as="sourcePoint" />
            <mxPoint x="240" y="180" as="targetPoint" />
            <Array as="points">
              <mxPoint x="1160" y="390" />
              <mxPoint x="1160" y="200" />
            </Array>
          </mxGeometry>
        </mxCell>
        <mxCell id="vMFZrTkS__saMolLycXG-126" value="NÃO" style="edgeLabel;html=1;align=center;verticalAlign=middle;resizable=0;points=[];fontSize=9;rounded=0;" vertex="1" connectable="0" parent="vMFZrTkS__saMolLycXG-125">
          <mxGeometry x="-0.4269" relative="1" as="geometry">
            <mxPoint x="121" y="177" as="offset" />
          </mxGeometry>
        </mxCell>
        <mxCell id="vMFZrTkS__saMolLycXG-131" value="&lt;span style=&quot;font-size: 9px;&quot;&gt;Já marcou os 5 reforços do mês?&lt;/span&gt;" style="rhombus;whiteSpace=wrap;html=1;fillColor=#fff2cc;strokeColor=#d6b656;rounded=0;" vertex="1" parent="1">
          <mxGeometry x="570" y="350" width="80" height="80" as="geometry" />
        </mxCell>
        <mxCell id="vMFZrTkS__saMolLycXG-133" value="" style="endArrow=classic;html=1;rounded=0;exitX=0.5;exitY=1;exitDx=0;exitDy=0;strokeColor=#808080;" edge="1" parent="1" source="vMFZrTkS__saMolLycXG-52" target="vMFZrTkS__saMolLycXG-135">
          <mxGeometry width="50" height="50" relative="1" as="geometry">
            <mxPoint x="720" y="284.9999999999999" as="sourcePoint" />
            <mxPoint x="610" y="460" as="targetPoint" />
            <Array as="points" />
          </mxGeometry>
        </mxCell>
        <mxCell id="vMFZrTkS__saMolLycXG-134" value="SIM" style="edgeLabel;html=1;align=center;verticalAlign=middle;resizable=0;points=[];fontSize=9;rounded=0;" vertex="1" connectable="0" parent="vMFZrTkS__saMolLycXG-133">
          <mxGeometry x="-0.3788" y="3" relative="1" as="geometry">
            <mxPoint x="-4" as="offset" />
          </mxGeometry>
        </mxCell>
        <mxCell id="vMFZrTkS__saMolLycXG-139" value="&lt;font style=&quot;font-size: 9px;&quot;&gt;3ª janela está aberta?&lt;/font&gt;" style="rhombus;whiteSpace=wrap;html=1;fillColor=#e1d5e7;strokeColor=#9673a6;rounded=0;" vertex="1" parent="1">
          <mxGeometry x="754" y="555" width="64" height="35" as="geometry" />
        </mxCell>
        <mxCell id="vMFZrTkS__saMolLycXG-154" value="AGENDA &lt;br&gt;REFORÇO" style="shape=dataStorage;whiteSpace=wrap;html=1;fixedSize=1;strokeColor=#82b366;fontFamily=Helvetica;fontSize=8;fillColor=#d5e8d4;rounded=0;" vertex="1" parent="1">
          <mxGeometry x="1027" y="723" width="97" height="80" as="geometry" />
        </mxCell>
        <mxCell id="vMFZrTkS__saMolLycXG-157" value="FIM" style="ellipse;whiteSpace=wrap;html=1;aspect=fixed;strokeColor=#b85450;fontFamily=Helvetica;fontSize=8;fillColor=#f8cecc;rounded=0;" vertex="1" parent="1">
          <mxGeometry x="1132" y="748" width="30" height="30" as="geometry" />
        </mxCell>
        <mxCell id="vMFZrTkS__saMolLycXG-158" value="" style="endArrow=classic;html=1;rounded=0;entryX=0;entryY=0.5;entryDx=0;entryDy=0;exitX=0.851;exitY=0.509;exitDx=0;exitDy=0;exitPerimeter=0;" edge="1" parent="1" source="vMFZrTkS__saMolLycXG-154" target="vMFZrTkS__saMolLycXG-157">
          <mxGeometry width="50" height="50" relative="1" as="geometry">
            <mxPoint x="1040" y="646" as="sourcePoint" />
            <mxPoint x="890" y="656" as="targetPoint" />
            <Array as="points" />
          </mxGeometry>
        </mxCell>
        <mxCell id="vMFZrTkS__saMolLycXG-162" value="" style="endArrow=classic;html=1;rounded=0;entryX=0;entryY=0.5;entryDx=0;entryDy=0;exitX=1;exitY=0.5;exitDx=0;exitDy=0;strokeColor=#808080;" edge="1" parent="1" source="vMFZrTkS__saMolLycXG-131" target="vMFZrTkS__saMolLycXG-52">
          <mxGeometry width="50" height="50" relative="1" as="geometry">
            <mxPoint x="781.0000000000002" y="400" as="sourcePoint" />
            <mxPoint x="815" y="400" as="targetPoint" />
            <Array as="points" />
          </mxGeometry>
        </mxCell>
        <mxCell id="vMFZrTkS__saMolLycXG-163" value="NÃO" style="edgeLabel;html=1;align=center;verticalAlign=middle;resizable=0;points=[];fontSize=9;rounded=0;" vertex="1" connectable="0" parent="vMFZrTkS__saMolLycXG-162">
          <mxGeometry x="-0.3788" y="3" relative="1" as="geometry">
            <mxPoint x="2" y="3" as="offset" />
          </mxGeometry>
        </mxCell>
        <mxCell id="vMFZrTkS__saMolLycXG-193" value="&lt;font size=&quot;1&quot;&gt;1ª janela?&lt;/font&gt;" style="rhombus;whiteSpace=wrap;html=1;fillColor=#dae8fc;strokeColor=#6c8ebf;rounded=0;" vertex="1" parent="1">
          <mxGeometry x="933" y="375.5" width="47.35" height="29" as="geometry" />
        </mxCell>
        <mxCell id="vMFZrTkS__saMolLycXG-196" value="&lt;font size=&quot;1&quot;&gt;2ª janela?&lt;/font&gt;" style="rhombus;whiteSpace=wrap;html=1;fillColor=#dae8fc;strokeColor=#6c8ebf;rounded=0;" vertex="1" parent="1">
          <mxGeometry x="1019" y="375.5" width="47.35" height="29" as="geometry" />
        </mxCell>
        <mxCell id="vMFZrTkS__saMolLycXG-197" value="&lt;font size=&quot;1&quot;&gt;3ª janela?&lt;/font&gt;" style="rhombus;whiteSpace=wrap;html=1;fillColor=#dae8fc;strokeColor=#6c8ebf;rounded=0;" vertex="1" parent="1">
          <mxGeometry x="1105.65" y="375.5" width="47.35" height="29" as="geometry" />
        </mxCell>
        <mxCell id="vMFZrTkS__saMolLycXG-211" value="" style="endArrow=classic;html=1;rounded=0;exitX=1;exitY=0.5;exitDx=0;exitDy=0;entryX=0;entryY=0.5;entryDx=0;entryDy=0;strokeColor=#808080;dashed=1;" edge="1" parent="1" source="vMFZrTkS__saMolLycXG-193" target="vMFZrTkS__saMolLycXG-196">
          <mxGeometry width="50" height="50" relative="1" as="geometry">
            <mxPoint x="895" y="400" as="sourcePoint" />
            <mxPoint x="943" y="400" as="targetPoint" />
            <Array as="points" />
          </mxGeometry>
        </mxCell>
        <mxCell id="vMFZrTkS__saMolLycXG-212" value="NÃO" style="edgeLabel;html=1;align=center;verticalAlign=middle;resizable=0;points=[];fontSize=9;rounded=0;" vertex="1" connectable="0" parent="vMFZrTkS__saMolLycXG-211">
          <mxGeometry x="-0.3788" y="3" relative="1" as="geometry">
            <mxPoint x="3" y="3" as="offset" />
          </mxGeometry>
        </mxCell>
        <mxCell id="vMFZrTkS__saMolLycXG-213" value="" style="endArrow=classic;html=1;rounded=0;exitX=1;exitY=0.5;exitDx=0;exitDy=0;entryX=0;entryY=0.5;entryDx=0;entryDy=0;strokeColor=#808080;dashed=1;" edge="1" parent="1" source="vMFZrTkS__saMolLycXG-196" target="vMFZrTkS__saMolLycXG-197">
          <mxGeometry width="50" height="50" relative="1" as="geometry">
            <mxPoint x="990.3500000000001" y="400" as="sourcePoint" />
            <mxPoint x="1029" y="400" as="targetPoint" />
            <Array as="points" />
          </mxGeometry>
        </mxCell>
        <mxCell id="vMFZrTkS__saMolLycXG-214" value="NÃO" style="edgeLabel;html=1;align=center;verticalAlign=middle;resizable=0;points=[];fontSize=9;rounded=0;" vertex="1" connectable="0" parent="vMFZrTkS__saMolLycXG-213">
          <mxGeometry x="-0.3788" y="3" relative="1" as="geometry">
            <mxPoint x="3" y="3" as="offset" />
          </mxGeometry>
        </mxCell>
        <mxCell id="vMFZrTkS__saMolLycXG-217" value="" style="endArrow=classic;html=1;rounded=0;exitX=0.5;exitY=1;exitDx=0;exitDy=0;strokeColor=#808080;entryX=0.5;entryY=0;entryDx=0;entryDy=0;" edge="1" parent="1" source="vMFZrTkS__saMolLycXG-193" target="vMFZrTkS__saMolLycXG-198">
          <mxGeometry width="50" height="50" relative="1" as="geometry">
            <mxPoint x="895" y="400" as="sourcePoint" />
            <mxPoint x="943" y="400" as="targetPoint" />
            <Array as="points" />
          </mxGeometry>
        </mxCell>
        <mxCell id="vMFZrTkS__saMolLycXG-218" value="SIM" style="edgeLabel;html=1;align=center;verticalAlign=middle;resizable=0;points=[];fontSize=9;rounded=0;" vertex="1" connectable="0" parent="vMFZrTkS__saMolLycXG-217">
          <mxGeometry x="-0.3788" y="3" relative="1" as="geometry">
            <mxPoint x="-4" y="1" as="offset" />
          </mxGeometry>
        </mxCell>
        <mxCell id="vMFZrTkS__saMolLycXG-219" value="" style="endArrow=classic;html=1;rounded=0;exitX=0.5;exitY=1;exitDx=0;exitDy=0;strokeColor=#808080;entryX=0.5;entryY=0;entryDx=0;entryDy=0;" edge="1" parent="1" source="vMFZrTkS__saMolLycXG-196" target="vMFZrTkS__saMolLycXG-198">
          <mxGeometry width="50" height="50" relative="1" as="geometry">
            <mxPoint x="966.675" y="414.5" as="sourcePoint" />
            <mxPoint x="1009.595" y="435" as="targetPoint" />
            <Array as="points" />
          </mxGeometry>
        </mxCell>
        <mxCell id="vMFZrTkS__saMolLycXG-220" value="SIM" style="edgeLabel;html=1;align=center;verticalAlign=middle;resizable=0;points=[];fontSize=9;rounded=0;" vertex="1" connectable="0" parent="vMFZrTkS__saMolLycXG-219">
          <mxGeometry x="-0.3788" y="3" relative="1" as="geometry">
            <mxPoint x="-2" y="-4" as="offset" />
          </mxGeometry>
        </mxCell>
        <mxCell id="vMFZrTkS__saMolLycXG-221" value="" style="edgeStyle=segmentEdgeStyle;endArrow=classic;html=1;rounded=0;strokeColor=#808080;exitX=0.5;exitY=1;exitDx=0;exitDy=0;entryX=0.526;entryY=0.021;entryDx=0;entryDy=0;entryPerimeter=0;dashed=1;" edge="1" parent="1" source="vMFZrTkS__saMolLycXG-197" target="vMFZrTkS__saMolLycXG-124">
          <mxGeometry width="50" height="50" relative="1" as="geometry">
            <mxPoint x="1162.3400000000001" y="492" as="sourcePoint" />
            <mxPoint x="920" y="600" as="targetPoint" />
            <Array as="points">
              <mxPoint x="1129" y="492" />
              <mxPoint x="1130" y="492" />
              <mxPoint x="1130" y="614" />
              <mxPoint x="920" y="614" />
            </Array>
          </mxGeometry>
        </mxCell>
        <mxCell id="vMFZrTkS__saMolLycXG-222" value="SIM" style="edgeLabel;html=1;align=center;verticalAlign=middle;resizable=0;points=[];fontSize=9;rounded=0;" vertex="1" connectable="0" parent="vMFZrTkS__saMolLycXG-221">
          <mxGeometry x="-0.4269" relative="1" as="geometry">
            <mxPoint x="-1" y="-101" as="offset" />
          </mxGeometry>
        </mxCell>
        <mxCell id="vMFZrTkS__saMolLycXG-225" value="" style="edgeStyle=segmentEdgeStyle;endArrow=classic;html=1;rounded=0;strokeColor=#808080;entryX=0.976;entryY=-0.003;entryDx=0;entryDy=0;entryPerimeter=0;startArrow=none;exitX=0;exitY=0.5;exitDx=0;exitDy=0;" edge="1" parent="1" source="vMFZrTkS__saMolLycXG-124" target="vMFZrTkS__saMolLycXG-60">
          <mxGeometry width="50" height="50" relative="1" as="geometry">
            <mxPoint x="720" y="690" as="sourcePoint" />
            <mxPoint x="230" y="650" as="targetPoint" />
            <Array as="points">
              <mxPoint x="720" y="675" />
            </Array>
          </mxGeometry>
        </mxCell>
        <mxCell id="vMFZrTkS__saMolLycXG-236" value="NÃO" style="edgeLabel;html=1;align=center;verticalAlign=middle;resizable=0;points=[];fontSize=9;fontFamily=Helvetica;fontColor=#330000;rounded=0;" vertex="1" connectable="0" parent="vMFZrTkS__saMolLycXG-225">
          <mxGeometry x="-0.9581" y="-2" relative="1" as="geometry">
            <mxPoint x="-2" y="1" as="offset" />
          </mxGeometry>
        </mxCell>
        <mxCell id="vMFZrTkS__saMolLycXG-233" value="" style="edgeStyle=segmentEdgeStyle;endArrow=classic;html=1;rounded=0;strokeColor=#808080;exitX=0.5;exitY=1;exitDx=0;exitDy=0;dashed=1;" edge="1" parent="1" source="vMFZrTkS__saMolLycXG-139" target="vMFZrTkS__saMolLycXG-124">
          <mxGeometry width="50" height="50" relative="1" as="geometry">
            <mxPoint x="676.4" y="560" as="sourcePoint" />
            <mxPoint x="850" y="590" as="targetPoint" />
            <Array as="points">
              <mxPoint x="786" y="614" />
            </Array>
          </mxGeometry>
        </mxCell>
        <mxCell id="vMFZrTkS__saMolLycXG-251" value="" style="endArrow=classic;html=1;rounded=0;dashed=1;labelBackgroundColor=#1736FF;labelBorderColor=none;strokeColor=#5E74FF;fontFamily=Helvetica;fontSize=15;fontColor=#365EFF;exitX=0.041;exitY=1.075;exitDx=0;exitDy=0;exitPerimeter=0;" edge="1" parent="1">
          <mxGeometry width="50" height="50" relative="1" as="geometry">
            <mxPoint x="949.6300000000001" y="539.27" as="sourcePoint" />
            <mxPoint x="924" y="539" as="targetPoint" />
          </mxGeometry>
        </mxCell>
        <mxCell id="vMFZrTkS__saMolLycXG-252" value="" style="endArrow=classic;html=1;rounded=0;dashed=1;labelBackgroundColor=#1736FF;labelBorderColor=none;strokeColor=#5E74FF;fontFamily=Helvetica;fontSize=15;fontColor=#365EFF;exitX=0.041;exitY=1.075;exitDx=0;exitDy=0;exitPerimeter=0;" edge="1" parent="1">
          <mxGeometry width="50" height="50" relative="1" as="geometry">
            <mxPoint x="949.6300000000001" y="549.27" as="sourcePoint" />
            <mxPoint x="924" y="549" as="targetPoint" />
          </mxGeometry>
        </mxCell>
        <mxCell id="vMFZrTkS__saMolLycXG-253" value="" style="endArrow=classic;html=1;rounded=0;dashed=1;labelBackgroundColor=#1736FF;labelBorderColor=none;strokeColor=#5E74FF;fontFamily=Helvetica;fontSize=15;fontColor=#365EFF;exitX=0.041;exitY=1.075;exitDx=0;exitDy=0;exitPerimeter=0;" edge="1" parent="1">
          <mxGeometry width="50" height="50" relative="1" as="geometry">
            <mxPoint x="949.6300000000001" y="559.27" as="sourcePoint" />
            <mxPoint x="924" y="559" as="targetPoint" />
          </mxGeometry>
        </mxCell>
        <mxCell id="vMFZrTkS__saMolLycXG-254" value="" style="endArrow=classic;html=1;rounded=0;dashed=1;labelBackgroundColor=#1736FF;labelBorderColor=none;strokeColor=#5E74FF;fontFamily=Helvetica;fontSize=15;fontColor=#365EFF;exitX=0.041;exitY=1.075;exitDx=0;exitDy=0;exitPerimeter=0;" edge="1" parent="1">
          <mxGeometry width="50" height="50" relative="1" as="geometry">
            <mxPoint x="1157.6300000000003" y="334.27" as="sourcePoint" />
            <mxPoint x="1131.9999999999998" y="334" as="targetPoint" />
          </mxGeometry>
        </mxCell>
        <mxCell id="vMFZrTkS__saMolLycXG-255" value="" style="endArrow=classic;html=1;rounded=0;dashed=1;labelBackgroundColor=#1736FF;labelBorderColor=none;strokeColor=#5E74FF;fontFamily=Helvetica;fontSize=15;fontColor=#365EFF;exitX=0.041;exitY=1.075;exitDx=0;exitDy=0;exitPerimeter=0;" edge="1" parent="1">
          <mxGeometry width="50" height="50" relative="1" as="geometry">
            <mxPoint x="1157.6300000000003" y="345.27" as="sourcePoint" />
            <mxPoint x="1131.9999999999998" y="345" as="targetPoint" />
          </mxGeometry>
        </mxCell>
        <mxCell id="vMFZrTkS__saMolLycXG-256" value="" style="endArrow=classic;html=1;rounded=0;dashed=1;labelBackgroundColor=#1736FF;labelBorderColor=none;strokeColor=#5E74FF;fontFamily=Helvetica;fontSize=15;fontColor=#365EFF;exitX=0.041;exitY=1.075;exitDx=0;exitDy=0;exitPerimeter=0;" edge="1" parent="1">
          <mxGeometry width="50" height="50" relative="1" as="geometry">
            <mxPoint x="1157.6300000000003" y="354.27" as="sourcePoint" />
            <mxPoint x="1131.9999999999998" y="354" as="targetPoint" />
          </mxGeometry>
        </mxCell>
        <mxCell id="vMFZrTkS__saMolLycXG-257" value="" style="endArrow=classic;html=1;rounded=0;dashed=1;labelBackgroundColor=#1736FF;labelBorderColor=none;strokeColor=#5E74FF;fontFamily=Helvetica;fontSize=15;fontColor=#365EFF;exitX=0.041;exitY=1.075;exitDx=0;exitDy=0;exitPerimeter=0;" edge="1" parent="1">
          <mxGeometry width="50" height="50" relative="1" as="geometry">
            <mxPoint x="607.6300000000001" y="306.27" as="sourcePoint" />
            <mxPoint x="582" y="306" as="targetPoint" />
          </mxGeometry>
        </mxCell>
        <mxCell id="vMFZrTkS__saMolLycXG-258" value="" style="endArrow=classic;html=1;rounded=0;dashed=1;labelBackgroundColor=#1736FF;labelBorderColor=none;strokeColor=#5E74FF;fontFamily=Helvetica;fontSize=15;fontColor=#365EFF;exitX=0.041;exitY=1.075;exitDx=0;exitDy=0;exitPerimeter=0;" edge="1" parent="1">
          <mxGeometry width="50" height="50" relative="1" as="geometry">
            <mxPoint x="607.6300000000001" y="316.27" as="sourcePoint" />
            <mxPoint x="582" y="316" as="targetPoint" />
          </mxGeometry>
        </mxCell>
        <mxCell id="vMFZrTkS__saMolLycXG-259" value="" style="endArrow=classic;html=1;rounded=0;dashed=1;labelBackgroundColor=#1736FF;labelBorderColor=none;strokeColor=#5E74FF;fontFamily=Helvetica;fontSize=15;fontColor=#365EFF;exitX=0.041;exitY=1.075;exitDx=0;exitDy=0;exitPerimeter=0;" edge="1" parent="1">
          <mxGeometry width="50" height="50" relative="1" as="geometry">
            <mxPoint x="607.6300000000001" y="326.26999999999987" as="sourcePoint" />
            <mxPoint x="582" y="326" as="targetPoint" />
          </mxGeometry>
        </mxCell>
        <mxCell id="vMFZrTkS__saMolLycXG-260" value="" style="endArrow=classic;html=1;rounded=0;dashed=1;labelBackgroundColor=#1736FF;labelBorderColor=none;strokeColor=#5E74FF;fontFamily=Helvetica;fontSize=15;fontColor=#365EFF;exitX=0.041;exitY=1.075;exitDx=0;exitDy=0;exitPerimeter=0;" edge="1" parent="1">
          <mxGeometry width="50" height="50" relative="1" as="geometry">
            <mxPoint x="718.6300000000001" y="652.27" as="sourcePoint" />
            <mxPoint x="693" y="652" as="targetPoint" />
          </mxGeometry>
        </mxCell>
        <mxCell id="vMFZrTkS__saMolLycXG-261" value="" style="endArrow=classic;html=1;rounded=0;dashed=1;labelBackgroundColor=#1736FF;labelBorderColor=none;strokeColor=#5E74FF;fontFamily=Helvetica;fontSize=15;fontColor=#365EFF;exitX=0.041;exitY=1.075;exitDx=0;exitDy=0;exitPerimeter=0;" edge="1" parent="1">
          <mxGeometry width="50" height="50" relative="1" as="geometry">
            <mxPoint x="718.6300000000001" y="662.27" as="sourcePoint" />
            <mxPoint x="693" y="662" as="targetPoint" />
          </mxGeometry>
        </mxCell>
        <mxCell id="vMFZrTkS__saMolLycXG-262" value="" style="endArrow=classic;html=1;rounded=0;dashed=1;labelBackgroundColor=#1736FF;labelBorderColor=none;strokeColor=#5E74FF;fontFamily=Helvetica;fontSize=15;fontColor=#365EFF;exitX=0.041;exitY=1.075;exitDx=0;exitDy=0;exitPerimeter=0;" edge="1" parent="1">
          <mxGeometry width="50" height="50" relative="1" as="geometry">
            <mxPoint x="718.6300000000001" y="672.2699999999999" as="sourcePoint" />
            <mxPoint x="693" y="672" as="targetPoint" />
          </mxGeometry>
        </mxCell>
        <mxCell id="vMFZrTkS__saMolLycXG-129" value="O limite de vagas por dia é distribuído por turno: &lt;font color=&quot;#ff0000&quot;&gt;Ex.: 3 NORTURNO e 6 DIURNO&lt;/font&gt;" style="text;html=1;strokeColor=none;fillColor=none;align=left;verticalAlign=middle;whiteSpace=wrap;rounded=0;fontFamily=Helvetica;fontSize=8;fontColor=#365EFF;" vertex="1" parent="1">
          <mxGeometry x="976.6700000000001" y="651.5" width="141" height="44" as="geometry" />
        </mxCell>
        <mxCell id="vMFZrTkS__saMolLycXG-130" value="" style="strokeWidth=2;html=1;shape=mxgraph.flowchart.annotation_2;align=left;labelPosition=right;pointerEvents=1;strokeColor=#d6b656;fontFamily=Helvetica;fontSize=8;fontColor=#365EFF;fillColor=#fff2cc;rotation=0;rounded=0;" vertex="1" parent="1">
          <mxGeometry x="967.6700000000001" y="649.5" width="13" height="50" as="geometry" />
        </mxCell>
        <mxCell id="vMFZrTkS__saMolLycXG-264" value="" style="endArrow=classic;html=1;rounded=0;dashed=1;labelBackgroundColor=#1736FF;labelBorderColor=none;strokeColor=#d79b00;fontFamily=Helvetica;fontSize=15;fontColor=#365EFF;exitX=0.092;exitY=0.005;exitDx=0;exitDy=0;exitPerimeter=0;fillColor=#ffe6cc;" edge="1" parent="1">
          <mxGeometry width="50" height="50" relative="1" as="geometry">
            <mxPoint x="893.0999999999999" y="779.5160000000001" as="sourcePoint" />
            <mxPoint x="918" y="780" as="targetPoint" />
          </mxGeometry>
        </mxCell>
        <mxCell id="vMFZrTkS__saMolLycXG-265" value="" style="endArrow=classic;html=1;rounded=0;dashed=1;labelBackgroundColor=#1736FF;labelBorderColor=none;strokeColor=#d79b00;fontFamily=Helvetica;fontSize=15;fontColor=#365EFF;exitX=0.092;exitY=0.005;exitDx=0;exitDy=0;exitPerimeter=0;fillColor=#ffe6cc;" edge="1" parent="1">
          <mxGeometry width="50" height="50" relative="1" as="geometry">
            <mxPoint x="893.0999999999999" y="789.5160000000001" as="sourcePoint" />
            <mxPoint x="918" y="790" as="targetPoint" />
          </mxGeometry>
        </mxCell>
        <mxCell id="vMFZrTkS__saMolLycXG-266" value="" style="endArrow=classic;html=1;rounded=0;dashed=1;labelBackgroundColor=#1736FF;labelBorderColor=none;strokeColor=#d79b00;fontFamily=Helvetica;fontSize=15;fontColor=#365EFF;exitX=0.092;exitY=0.005;exitDx=0;exitDy=0;exitPerimeter=0;fillColor=#ffe6cc;" edge="1" parent="1">
          <mxGeometry width="50" height="50" relative="1" as="geometry">
            <mxPoint x="893.0999999999999" y="799.5160000000001" as="sourcePoint" />
            <mxPoint x="918" y="800" as="targetPoint" />
          </mxGeometry>
        </mxCell>
        <mxCell id="vMFZrTkS__saMolLycXG-275" value="" style="edgeStyle=segmentEdgeStyle;endArrow=classic;html=1;rounded=0;labelBackgroundColor=#1736FF;labelBorderColor=none;strokeColor=#808080;fontFamily=Helvetica;fontSize=9;fontColor=#330000;exitX=0.5;exitY=1;exitDx=0;exitDy=0;entryX=0.009;entryY=0.583;entryDx=0;entryDy=0;entryPerimeter=0;" edge="1" parent="1" source="vMFZrTkS__saMolLycXG-124" target="vMFZrTkS__saMolLycXG-154">
          <mxGeometry width="50" height="50" relative="1" as="geometry">
            <mxPoint x="880" y="800" as="sourcePoint" />
            <mxPoint x="990" y="800" as="targetPoint" />
            <Array as="points">
              <mxPoint x="894" y="770" />
              <mxPoint x="910" y="770" />
            </Array>
          </mxGeometry>
        </mxCell>
        <mxCell id="vMFZrTkS__saMolLycXG-276" value="SIM" style="edgeLabel;html=1;align=center;verticalAlign=middle;resizable=0;points=[];fontSize=9;fontFamily=Helvetica;fontColor=#330000;rounded=0;" vertex="1" connectable="0" parent="1">
          <mxGeometry x="895.5495878924521" y="745.0025567434892" as="geometry">
            <mxPoint x="-2" y="2" as="offset" />
          </mxGeometry>
        </mxCell>
        <mxCell id="vMFZrTkS__saMolLycXG-282" value="&lt;font style=&quot;font-size: 9px;&quot;&gt;Já marcou os 3 reforços para o mês permitidos para esta condição?&lt;/font&gt;" style="rhombus;whiteSpace=wrap;html=1;fillColor=#fff2cc;strokeColor=#d6b656;rounded=0;" vertex="1" parent="1">
          <mxGeometry x="805" y="462" width="80" height="80" as="geometry" />
        </mxCell>
        <mxCell id="vMFZrTkS__saMolLycXG-283" value="" style="endArrow=classic;html=1;rounded=0;exitX=0.5;exitY=1;exitDx=0;exitDy=0;strokeColor=#808080;entryX=0.5;entryY=0;entryDx=0;entryDy=0;" edge="1" parent="1" source="vMFZrTkS__saMolLycXG-51" target="vMFZrTkS__saMolLycXG-282">
          <mxGeometry width="50" height="50" relative="1" as="geometry">
            <mxPoint x="880" y="430" as="sourcePoint" />
            <mxPoint x="880" y="462" as="targetPoint" />
            <Array as="points" />
          </mxGeometry>
        </mxCell>
        <mxCell id="vMFZrTkS__saMolLycXG-284" value="SIM" style="edgeLabel;html=1;align=center;verticalAlign=middle;resizable=0;points=[];fontSize=9;rounded=0;" vertex="1" connectable="0" parent="vMFZrTkS__saMolLycXG-283">
          <mxGeometry x="-0.3788" y="3" relative="1" as="geometry">
            <mxPoint x="-3" y="4" as="offset" />
          </mxGeometry>
        </mxCell>
        <mxCell id="vMFZrTkS__saMolLycXG-286" value="" style="edgeStyle=segmentEdgeStyle;endArrow=classic;html=1;rounded=0;labelBackgroundColor=#1736FF;labelBorderColor=none;strokeColor=#808080;fontFamily=Helvetica;fontSize=9;fontColor=#330000;exitX=0.5;exitY=1;exitDx=0;exitDy=0;dashed=1;" edge="1" parent="1" source="vMFZrTkS__saMolLycXG-198" target="vMFZrTkS__saMolLycXG-124">
          <mxGeometry width="50" height="50" relative="1" as="geometry">
            <mxPoint x="1009.955" y="520" as="sourcePoint" />
            <mxPoint x="920" y="620" as="targetPoint" />
            <Array as="points">
              <mxPoint x="1000" y="620" />
            </Array>
          </mxGeometry>
        </mxCell>
        <mxCell id="vMFZrTkS__saMolLycXG-287" value="NÃO" style="edgeLabel;html=1;align=center;verticalAlign=middle;resizable=0;points=[];fontSize=9;fontFamily=Helvetica;fontColor=#330000;rounded=0;" vertex="1" connectable="0" parent="1">
          <mxGeometry x="945" y="493.57757775570497" as="geometry">
            <mxPoint x="53" y="36" as="offset" />
          </mxGeometry>
        </mxCell>
        <mxCell id="vMFZrTkS__saMolLycXG-292" value="" style="edgeStyle=segmentEdgeStyle;endArrow=classic;html=1;rounded=0;labelBackgroundColor=#1736FF;labelBorderColor=none;strokeColor=#808080;fontFamily=Helvetica;fontSize=9;fontColor=#330000;entryX=0.953;entryY=-0.004;entryDx=0;entryDy=0;entryPerimeter=0;exitX=0;exitY=0.5;exitDx=0;exitDy=0;" edge="1" parent="1" source="vMFZrTkS__saMolLycXG-139" target="vMFZrTkS__saMolLycXG-60">
          <mxGeometry width="50" height="50" relative="1" as="geometry">
            <mxPoint x="660" y="480" as="sourcePoint" />
            <mxPoint x="480" y="640" as="targetPoint" />
            <Array as="points">
              <mxPoint x="750" y="573" />
              <mxPoint x="750" y="662" />
            </Array>
          </mxGeometry>
        </mxCell>
        <mxCell id="vMFZrTkS__saMolLycXG-301" value="SIM" style="edgeLabel;html=1;align=center;verticalAlign=middle;resizable=0;points=[];fontSize=9;rounded=0;" vertex="1" connectable="0" parent="1">
          <mxGeometry x="846.9999999999998" y="639.9974193548387" as="geometry">
            <mxPoint x="-61" y="-42" as="offset" />
          </mxGeometry>
        </mxCell>
        <mxCell id="vMFZrTkS__saMolLycXG-307" value="" style="edgeStyle=segmentEdgeStyle;endArrow=classic;html=1;rounded=0;strokeColor=#808080;exitX=1;exitY=0.5;exitDx=0;exitDy=0;dashed=1;entryX=0.5;entryY=0;entryDx=0;entryDy=0;" edge="1" parent="1" source="vMFZrTkS__saMolLycXG-282" target="vMFZrTkS__saMolLycXG-124">
          <mxGeometry width="50" height="50" relative="1" as="geometry">
            <mxPoint x="737" y="585" as="sourcePoint" />
            <mxPoint x="880" y="580" as="targetPoint" />
            <Array as="points">
              <mxPoint x="894" y="502" />
              <mxPoint x="894" y="600" />
              <mxPoint x="894" y="600" />
            </Array>
          </mxGeometry>
        </mxCell>
        <mxCell id="vMFZrTkS__saMolLycXG-308" value="NÃO" style="edgeLabel;html=1;align=center;verticalAlign=middle;resizable=0;points=[];fontSize=9;rounded=0;" vertex="1" connectable="0" parent="1">
          <mxGeometry x="893.9999999999998" y="501.9974193548387" as="geometry">
            <mxPoint x="4" as="offset" />
          </mxGeometry>
        </mxCell>
        <mxCell id="vMFZrTkS__saMolLycXG-135" value="&lt;font style=&quot;font-size: 9px;&quot;&gt;Já marcou os 4 reforços para o mês permitidos para esta condição?&lt;/font&gt;" style="rhombus;whiteSpace=wrap;html=1;fillColor=#fff2cc;strokeColor=#d6b656;rounded=0;fontSize=9;" vertex="1" parent="1">
          <mxGeometry x="687" y="462" width="80" height="80" as="geometry" />
        </mxCell>
        <mxCell id="vMFZrTkS__saMolLycXG-312" value="" style="edgeStyle=segmentEdgeStyle;endArrow=classic;html=1;rounded=0;strokeColor=#808080;dashed=1;exitX=0;exitY=0.5;exitDx=0;exitDy=0;entryX=0.429;entryY=0.068;entryDx=0;entryDy=0;entryPerimeter=0;" edge="1" parent="1" source="vMFZrTkS__saMolLycXG-135" target="vMFZrTkS__saMolLycXG-124">
          <mxGeometry width="50" height="50" relative="1" as="geometry">
            <mxPoint x="780" y="530" as="sourcePoint" />
            <mxPoint x="860" y="570" as="targetPoint" />
            <Array as="points">
              <mxPoint x="670" y="502" />
              <mxPoint x="670" y="620" />
              <mxPoint x="858" y="620" />
            </Array>
          </mxGeometry>
        </mxCell>
        <mxCell id="vMFZrTkS__saMolLycXG-124" value="&lt;font size=&quot;1&quot;&gt;Data possui vaga para marcação?&lt;/font&gt;" style="rhombus;whiteSpace=wrap;html=1;fillColor=#dae8fc;strokeColor=#6c8ebf;rounded=0;" vertex="1" parent="1">
          <mxGeometry x="823" y="611" width="141.09" height="127" as="geometry" />
        </mxCell>
        <mxCell id="vMFZrTkS__saMolLycXG-316" value="" style="edgeStyle=segmentEdgeStyle;endArrow=classic;html=1;rounded=0;strokeColor=#808080;dashed=1;exitX=1;exitY=0.5;exitDx=0;exitDy=0;entryX=0.5;entryY=0;entryDx=0;entryDy=0;" edge="1" parent="1" source="vMFZrTkS__saMolLycXG-135" target="vMFZrTkS__saMolLycXG-139">
          <mxGeometry width="50" height="50" relative="1" as="geometry">
            <mxPoint x="777" y="512" as="sourcePoint" />
            <mxPoint x="870" y="580" as="targetPoint" />
            <Array as="points">
              <mxPoint x="786" y="502" />
            </Array>
          </mxGeometry>
        </mxCell>
        <mxCell id="vMFZrTkS__saMolLycXG-318" value="NÃO" style="edgeLabel;html=1;align=center;verticalAlign=middle;resizable=0;points=[];fontSize=9;rounded=0;" vertex="1" connectable="0" parent="1">
          <mxGeometry x="749" y="583.2142857142857" as="geometry" />
        </mxCell>
        <mxCell id="vMFZrTkS__saMolLycXG-319" value="NÃO" style="edgeLabel;html=1;align=center;verticalAlign=middle;resizable=0;points=[];fontSize=9;rounded=0;" vertex="1" connectable="0" parent="1">
          <mxGeometry x="672" y="501.21428571428567" as="geometry" />
        </mxCell>
        <mxCell id="vMFZrTkS__saMolLycXG-321" value="" style="edgeStyle=segmentEdgeStyle;endArrow=classic;html=1;rounded=0;strokeColor=#808080;dashed=1;exitX=1;exitY=0.5;exitDx=0;exitDy=0;entryX=0.5;entryY=0;entryDx=0;entryDy=0;" edge="1" parent="1">
          <mxGeometry width="50" height="50" relative="1" as="geometry">
            <mxPoint x="805" y="501.9999999999999" as="sourcePoint" />
            <mxPoint x="786" y="555" as="targetPoint" />
            <Array as="points">
              <mxPoint x="786" y="502" />
            </Array>
          </mxGeometry>
        </mxCell>
        <mxCell id="vMFZrTkS__saMolLycXG-322" value="SIM" style="edgeLabel;html=1;align=center;verticalAlign=middle;resizable=0;points=[];fontSize=9;rounded=0;" vertex="1" connectable="0" parent="1">
          <mxGeometry x="784" y="503.0042857142857" as="geometry">
            <mxPoint x="1" as="offset" />
          </mxGeometry>
        </mxCell>
        <mxCell id="vMFZrTkS__saMolLycXG-323" value="" style="endArrow=classic;html=1;rounded=0;dashed=1;labelBackgroundColor=#1736FF;labelBorderColor=none;strokeColor=#5E74FF;fontFamily=Helvetica;fontSize=15;fontColor=#365EFF;exitX=0.041;exitY=1.075;exitDx=0;exitDy=0;exitPerimeter=0;" edge="1" parent="1">
          <mxGeometry width="50" height="50" relative="1" as="geometry">
            <mxPoint x="877.6300000000001" y="173.26999999999998" as="sourcePoint" />
            <mxPoint x="851.9999999999998" y="173" as="targetPoint" />
          </mxGeometry>
        </mxCell>
        <mxCell id="vMFZrTkS__saMolLycXG-324" value="" style="endArrow=classic;html=1;rounded=0;dashed=1;labelBackgroundColor=#1736FF;labelBorderColor=none;strokeColor=#5E74FF;fontFamily=Helvetica;fontSize=15;fontColor=#365EFF;exitX=0.041;exitY=1.075;exitDx=0;exitDy=0;exitPerimeter=0;" edge="1" parent="1">
          <mxGeometry width="50" height="50" relative="1" as="geometry">
            <mxPoint x="877.6300000000001" y="183.26999999999998" as="sourcePoint" />
            <mxPoint x="851.9999999999998" y="183" as="targetPoint" />
          </mxGeometry>
        </mxCell>
        <mxCell id="vMFZrTkS__saMolLycXG-325" value="" style="endArrow=classic;html=1;rounded=0;dashed=1;labelBackgroundColor=#1736FF;labelBorderColor=none;strokeColor=#5E74FF;fontFamily=Helvetica;fontSize=15;fontColor=#365EFF;exitX=0.041;exitY=1.075;exitDx=0;exitDy=0;exitPerimeter=0;" edge="1" parent="1">
          <mxGeometry width="50" height="50" relative="1" as="geometry">
            <mxPoint x="877.6300000000001" y="193.26999999999987" as="sourcePoint" />
            <mxPoint x="851.9999999999998" y="193" as="targetPoint" />
          </mxGeometry>
        </mxCell>
        <mxCell id="vMFZrTkS__saMolLycXG-326" value="" style="endArrow=classic;html=1;rounded=0;dashed=1;labelBackgroundColor=#1736FF;labelBorderColor=none;strokeColor=#d79b00;fontFamily=Helvetica;fontSize=15;fontColor=#365EFF;exitX=0.092;exitY=0.005;exitDx=0;exitDy=0;exitPerimeter=0;fillColor=#ffe6cc;" edge="1" parent="1">
          <mxGeometry width="50" height="50" relative="1" as="geometry">
            <mxPoint x="814.0999999999999" y="624.5160000000001" as="sourcePoint" />
            <mxPoint x="839" y="625" as="targetPoint" />
          </mxGeometry>
        </mxCell>
        <mxCell id="vMFZrTkS__saMolLycXG-327" value="" style="endArrow=classic;html=1;rounded=0;dashed=1;labelBackgroundColor=#1736FF;labelBorderColor=none;strokeColor=#d79b00;fontFamily=Helvetica;fontSize=15;fontColor=#365EFF;exitX=0.092;exitY=0.005;exitDx=0;exitDy=0;exitPerimeter=0;fillColor=#ffe6cc;" edge="1" parent="1">
          <mxGeometry width="50" height="50" relative="1" as="geometry">
            <mxPoint x="814.0999999999999" y="634.5160000000001" as="sourcePoint" />
            <mxPoint x="839" y="635" as="targetPoint" />
          </mxGeometry>
        </mxCell>
        <mxCell id="vMFZrTkS__saMolLycXG-328" value="" style="endArrow=classic;html=1;rounded=0;dashed=1;labelBackgroundColor=#1736FF;labelBorderColor=none;strokeColor=#d79b00;fontFamily=Helvetica;fontSize=15;fontColor=#365EFF;exitX=0.092;exitY=0.005;exitDx=0;exitDy=0;exitPerimeter=0;fillColor=#ffe6cc;" edge="1" parent="1">
          <mxGeometry width="50" height="50" relative="1" as="geometry">
            <mxPoint x="814.0999999999999" y="644.5160000000001" as="sourcePoint" />
            <mxPoint x="839" y="645" as="targetPoint" />
          </mxGeometry>
        </mxCell>
        <mxCell id="vMFZrTkS__saMolLycXG-335" value="" style="rounded=0;whiteSpace=wrap;html=1;fillColor=none;fontColor=#333333;strokeColor=#EDEDED;dashed=1;" vertex="1" parent="1">
          <mxGeometry x="820" y="580" width="345" height="240" as="geometry" />
        </mxCell>
      </root>
    </mxGraphModel>
  </diagram>
</mxfile>
